<svg xmlns="http://www.w3.org/2000/svg" width="470" height="469" viewBox="0 0 470 469">
<g>
<path d="M 247.42 436.13 C246.86,437.04 205.71,436.98 181.50,436.04 L 167.50 435.50 L 167.21 427.75 C167.05,423.49 167.32,420.00 167.81,420.00 C168.30,420.00 168.99,416.60 169.34,412.45 C169.98,404.97 171.23,401.00 172.97,401.00 C173.46,401.00 174.14,401.88 174.49,402.96 C174.99,404.55 175.54,404.74 177.49,404.00 C179.26,403.33 217.12,402.52 226.63,402.95 C228.07,403.01 230.40,408.55 229.56,409.91 C229.20,410.48 230.06,411.23 231.45,411.58 C233.27,412.03 234.84,413.91 237.07,418.30 C238.77,421.64 241.92,426.83 244.06,429.82 C246.20,432.82 247.71,435.65 247.42,436.13 ZM 135.70 434.83 C134.52,435.81 60.72,437.08 57.99,436.17 C56.31,435.60 56.87,433.95 60.39,429.13 C62.25,426.59 65.01,422.25 66.52,419.50 C68.03,416.75 70.36,413.59 71.71,412.48 C73.06,411.37 74.48,408.90 74.87,406.98 L 75.58 403.50 L 101.54 403.00 C126.44,402.52 127.60,402.58 129.85,404.50 C133.55,407.66 135.00,411.44 135.00,417.95 C135.00,421.32 135.44,424.00 136.00,424.00 C137.49,424.00 137.22,433.57 135.70,434.83 ZM 164.00 387.56 L 164.00 391.00 L 152.97 391.00 C141.19,391.00 140.48,390.69 141.17,385.82 C141.47,383.68 142.05,383.48 148.50,383.19 C152.35,383.01 157.41,383.15 159.75,383.50 C163.80,384.09 164.00,384.28 164.00,387.56 ZM 162.37 288.52 C161.07,289.51 157.78,289.92 151.50,289.89 C141.22,289.84 140.00,289.53 140.00,287.02 C140.00,284.48 141.92,284.00 152.15,284.00 C158.94,284.00 161.52,284.38 162.69,285.55 C164.09,286.95 164.06,287.24 162.37,288.52 ZM 161.85 193.57 C161.52,195.30 160.45,195.53 151.74,195.79 C142.12,196.07 142.00,196.04 142.00,193.74 C142.00,189.93 143.87,189.00 151.51,189.00 C159.25,189.00 162.45,190.41 161.85,193.57 Z" fill="rgb(10,245,14)"/>
<path d="M 136.85 425.84 C136.69,424.74 136.41,424.00 136.00,424.00 C135.44,424.00 135.00,421.32 135.00,417.95 C135.00,411.44 133.55,407.66 129.85,404.50 C127.60,402.58 126.44,402.52 101.54,403.00 L 75.58 403.50 L 74.87 406.98 C74.48,408.90 73.06,411.37 71.71,412.48 C70.36,413.59 68.03,416.75 66.52,419.50 C65.01,422.25 62.25,426.59 60.39,429.13 C59.87,429.84 59.42,430.49 59.02,431.07 C59.63,430.12 60.39,429.01 61.31,427.68 C65.13,422.20 68.73,415.56 71.14,409.50 C72.02,407.30 80.00,383.65 80.00,383.25 C80.00,383.11 80.58,383.00 81.30,383.00 C82.72,383.00 85.00,377.61 85.00,374.26 C85.00,372.16 89.46,366.00 90.98,366.00 C91.42,366.00 92.84,366.93 94.14,368.08 L 96.50 370.15 L 94.25 369.67 C91.20,369.02 90.62,370.35 93.02,372.52 C94.81,374.14 95.00,374.15 95.00,372.65 C95.00,371.19 96.74,371.00 110.42,371.00 C118.90,371.00 126.45,370.76 127.21,370.47 C129.20,369.71 132.92,375.25 134.29,381.04 C134.94,383.77 135.82,386.00 136.24,386.00 C136.66,386.00 137.00,396.74 137.00,409.88 C137.00,416.89 136.96,422.07 136.85,425.84 ZM 239.92 423.40 C238.83,421.57 237.81,419.76 237.07,418.30 C234.84,413.91 233.27,412.03 231.45,411.58 C230.06,411.23 229.20,410.48 229.56,409.91 C230.40,408.55 228.07,403.01 226.63,402.95 C217.12,402.52 179.26,403.33 177.49,404.00 C175.54,404.74 174.99,404.55 174.49,402.96 C174.14,401.88 173.46,401.00 172.97,401.00 C171.23,401.00 169.98,404.97 169.34,412.45 C168.99,416.60 168.30,420.00 167.81,420.00 C167.62,420.00 167.46,420.54 167.34,421.46 L 167.23 411.25 C167.06,395.29 167.31,387.00 167.98,387.00 C168.54,387.00 169.00,385.00 169.00,382.56 C169.00,380.12 169.39,377.88 169.87,377.58 C170.35,377.28 171.01,375.68 171.35,374.02 C171.96,370.96 174.62,369.84 175.54,372.25 C176.26,374.13 203.77,373.38 205.72,371.42 C206.50,370.64 207.51,370.00 207.96,370.00 C208.98,370.00 210.00,372.53 210.00,375.08 C210.00,376.14 210.68,377.00 211.50,377.00 C212.41,377.00 213.00,376.07 213.00,374.62 C213.00,373.31 213.62,371.73 214.37,371.11 C216.23,369.56 219.00,370.77 219.00,373.12 C219.00,376.38 221.43,383.00 222.62,383.00 C223.68,383.00 225.87,388.22 229.35,399.00 C232.43,408.54 235.82,416.40 239.92,423.40 ZM 162.25 198.61 C161.10,199.48 157.75,199.90 152.50,199.83 C144.66,199.73 141.73,199.70 140.65,198.28 C140.00,197.43 140.00,196.09 140.00,193.95 L 140.00 193.86 C140.00,186.74 141.11,186.00 151.71,186.00 C159.33,186.00 160.79,186.28 162.28,188.01 C164.55,190.67 164.54,196.87 162.25,198.61 ZM 162.37 288.52 C164.06,287.24 164.09,286.95 162.69,285.55 C161.52,284.38 158.94,284.00 152.15,284.00 C141.97,284.00 140.02,284.47 140.00,286.98 C140.00,281.11 140.12,280.99 142.75,280.85 C151.06,280.40 158.25,280.57 160.95,281.27 C163.72,281.98 164.00,282.43 164.00,286.09 C164.00,288.31 163.53,291.00 162.96,292.07 C162.04,293.80 160.78,294.00 150.96,294.00 L 140.00 294.00 L 140.00 287.50 C140.00,287.35 140.00,287.21 140.00,287.06 C140.01,289.53 141.28,289.84 151.50,289.89 C157.78,289.92 161.07,289.51 162.37,288.52 ZM 161.85 193.57 C162.45,190.41 159.25,189.00 151.51,189.00 C143.87,189.00 142.00,189.93 142.00,193.74 C142.00,196.04 142.12,196.07 151.74,195.79 C160.45,195.53 161.52,195.30 161.85,193.57 ZM 164.00 387.25 C163.98,384.27 163.67,384.07 159.75,383.50 C157.41,383.15 152.35,383.01 148.50,383.19 C142.05,383.48 141.47,383.68 141.17,385.82 C141.09,386.41 141.03,386.92 141.00,387.38 L 141.00 386.62 L 141.00 378.74 L 144.75 379.36 C146.81,379.70 151.99,379.98 156.25,379.99 L 164.00 380.00 ZM 141.00 388.20 C141.19,390.80 143.51,391.00 152.97,391.00 L 164.00 391.00 L 164.00 394.50 L 141.00 394.50 ZM 247.42 436.12 C247.67,435.68 246.51,433.40 244.75,430.81 C244.79,430.87 244.83,430.92 244.87,430.98 C246.57,433.33 247.72,435.64 247.42,436.12 Z" fill="rgb(28,226,12)"/>
<path d="M 227.21 392.60 C224.95,386.15 223.44,383.00 222.62,383.00 C221.43,383.00 219.00,376.38 219.00,373.12 C219.00,370.77 216.23,369.56 214.37,371.11 C213.62,371.73 213.00,373.31 213.00,374.62 C213.00,376.07 212.41,377.00 211.50,377.00 C210.68,377.00 210.00,376.14 210.00,375.08 C210.00,372.53 208.98,370.00 207.96,370.00 C207.51,370.00 206.50,370.64 205.72,371.42 C203.77,373.38 176.26,374.13 175.54,372.25 C174.62,369.84 171.96,370.96 171.35,374.02 C171.01,375.68 170.35,377.28 169.87,377.58 C169.39,377.88 169.00,380.12 169.00,382.56 C169.00,385.00 168.54,387.00 167.98,387.00 C167.58,387.00 167.32,390.07 167.22,396.05 C167.08,372.86 167.34,361.00 167.99,361.00 C168.57,361.00 169.00,358.22 169.00,354.51 C169.00,346.03 170.84,339.19 173.33,338.39 C174.39,338.06 175.57,338.31 175.97,338.95 C176.48,339.77 180.73,340.00 190.59,339.72 C198.24,339.50 205.40,339.14 206.50,338.91 C207.98,338.61 208.89,339.34 210.00,341.73 C210.82,343.50 212.23,344.97 213.11,344.98 C214.30,344.99 215.14,346.92 216.30,352.25 C217.85,359.40 218.44,361.71 222.19,375.50 C223.89,381.75 225.56,387.42 227.21,392.60 ZM 137.00 407.22 C136.95,395.33 136.63,386.00 136.24,386.00 C135.82,386.00 134.94,383.77 134.29,381.04 C132.92,375.25 129.20,369.71 127.21,370.47 C126.45,370.76 118.90,371.00 110.42,371.00 C96.74,371.00 95.00,371.19 95.00,372.65 C95.00,374.15 94.81,374.14 93.02,372.52 C90.62,370.35 91.20,369.02 94.25,369.67 L 96.50 370.15 L 94.14 368.08 C92.84,366.93 91.42,366.00 90.98,366.00 C89.46,366.00 85.00,372.16 85.00,374.26 C85.00,377.61 82.72,383.00 81.30,383.00 C80.58,383.00 80.00,383.11 80.00,383.25 C80.00,383.59 74.47,400.02 72.11,406.79 C74.48,399.88 79.81,383.29 80.99,379.00 C81.67,376.52 82.61,373.38 83.06,372.00 C83.52,370.62 84.89,365.67 86.10,361.00 C87.32,356.33 88.84,352.18 89.48,351.80 C90.12,351.41 91.26,349.16 92.00,346.80 C92.81,344.25 93.26,342.65 94.29,341.66 C96.01,340.00 99.33,340.00 108.56,340.00 C108.91,340.00 109.27,340.00 109.64,340.00 C119.13,340.00 124.68,339.59 125.96,338.79 C127.62,337.76 128.21,337.99 130.19,340.46 C134.27,345.53 134.93,347.38 134.96,353.75 C134.98,357.23 135.44,360.00 136.00,360.00 C136.97,360.00 137.26,385.89 137.00,407.22 ZM 162.25 198.61 C164.54,196.87 164.55,190.67 162.28,188.01 C160.79,186.28 159.33,186.00 151.71,186.00 C141.19,186.00 140.02,186.73 140.00,193.69 C140.00,193.45 140.00,193.19 140.00,192.92 C140.00,192.64 140.00,192.37 140.00,192.11 C140.00,187.91 139.99,185.65 141.12,184.43 C142.43,183.02 145.29,183.02 151.47,183.04 C151.80,183.04 152.15,183.04 152.50,183.05 C163.27,183.07 164.00,183.71 164.00,193.14 C164.00,200.28 163.89,200.64 161.10,202.28 C157.78,204.24 147.26,204.48 142.75,202.70 C140.27,201.72 140.03,201.51 140.00,194.91 C140.02,196.50 140.10,197.57 140.65,198.28 C141.73,199.70 144.66,199.73 152.50,199.83 C157.75,199.90 161.10,199.48 162.25,198.61 ZM 163.94 284.11 C163.76,282.22 163.11,281.83 160.95,281.27 C158.25,280.57 151.06,280.40 142.75,280.85 C140.12,280.99 140.00,281.11 140.00,286.98 C140.00,287.00 140.00,287.01 140.00,287.02 C140.00,287.04 140.00,287.05 140.00,287.06 C140.00,287.21 140.00,287.35 140.00,287.50 L 140.00 278.25 L 143.12 277.62 C148.11,276.63 157.41,276.90 160.99,278.15 L 164.28 279.29 ZM 162.51 296.82 C161.78,297.55 145.19,297.99 142.25,297.35 C140.84,297.04 140.31,296.72 140.11,294.00 L 150.96 294.00 C160.78,294.00 162.04,293.80 162.96,292.07 C163.13,291.75 163.29,291.29 163.44,290.74 C163.13,294.05 162.76,296.58 162.51,296.82 ZM 163.50 376.50 L 163.50 380.00 L 156.25 379.99 C151.99,379.98 146.81,379.70 144.75,379.36 L 141.00 378.74 L 141.00 375.93 ZM 141.00 394.50 L 163.50 394.50 L 163.50 397.50 L 141.00 398.07 ZM 239.92 423.40 L 239.92 423.40 C235.90,416.53 232.57,408.84 229.53,399.55 C233.95,412.17 238.41,421.53 243.51,429.03 C242.41,427.44 241.12,425.41 239.92,423.40 Z" fill="rgb(47,208,12)"/>
<path d="M 227.21 392.60 C225.56,387.42 223.89,381.75 222.19,375.50 C218.44,361.71 217.85,359.40 216.30,352.25 C215.14,346.92 214.30,344.99 213.11,344.98 C212.23,344.97 210.82,343.50 210.00,341.73 C208.89,339.34 207.98,338.61 206.50,338.91 C205.40,339.14 198.24,339.50 190.59,339.72 C180.73,340.00 176.48,339.77 175.97,338.95 C175.57,338.31 174.39,338.06 173.33,338.39 C170.84,339.19 169.00,346.03 169.00,354.51 C169.00,358.22 168.57,361.00 167.99,361.00 C167.57,361.00 167.31,365.97 167.22,375.76 C167.13,347.39 167.39,326.00 167.86,326.00 C168.34,326.00 168.95,321.48 169.22,315.95 C169.49,310.23 170.21,305.39 170.88,304.72 C171.57,304.03 175.82,303.46 181.28,303.34 C186.35,303.22 191.62,303.08 193.00,303.01 C199.11,302.73 200.43,303.52 203.18,309.08 C204.65,312.06 206.45,315.16 207.18,315.97 C207.90,316.78 210.62,326.90 213.21,338.47 C215.80,350.04 218.45,361.52 219.10,364.00 C222.26,375.99 225.07,385.85 227.75,394.15 C227.57,393.62 227.39,393.10 227.21,392.60 ZM 136.34 361.22 C136.24,360.43 136.12,360.00 136.00,360.00 C135.44,360.00 134.98,357.23 134.96,353.75 C134.93,347.38 134.27,345.53 130.19,340.46 C128.21,337.99 127.62,337.76 125.96,338.79 C124.68,339.59 119.13,340.00 109.64,340.00 C109.27,340.00 108.91,340.00 108.56,340.00 C99.33,340.00 96.01,340.00 94.29,341.66 C93.26,342.65 92.81,344.25 92.00,346.80 C91.26,349.16 90.12,351.41 89.48,351.80 C88.84,352.18 87.32,356.33 86.10,361.00 C84.89,365.67 83.52,370.62 83.06,372.00 C83.04,372.08 83.01,372.17 82.98,372.27 C83.17,371.61 83.35,371.01 83.51,370.50 C85.23,364.85 91.61,338.67 93.02,331.50 C93.66,328.20 94.60,324.47 95.10,323.20 C95.59,321.94 96.00,320.03 96.00,318.95 C96.00,317.88 96.40,317.00 96.88,317.00 C97.37,317.00 98.54,314.64 99.48,311.75 C101.67,305.02 102.69,303.77 104.99,304.99 C106.34,305.72 107.42,305.34 109.49,303.42 C112.01,301.08 112.36,301.01 113.99,302.49 C115.34,303.71 117.66,304.04 123.94,303.91 C129.13,303.80 132.57,304.17 133.32,304.91 C135.02,306.62 135.68,317.54 136.34,361.22 ZM 161.75 207.37 C159.22,208.05 145.42,208.01 142.78,207.32 C141.78,207.05 140.80,205.47 140.43,203.49 C140.10,201.69 139.97,198.78 140.01,195.63 C140.05,201.52 140.37,201.76 142.75,202.70 C147.26,204.48 157.78,204.24 161.10,202.28 C163.89,200.64 164.00,200.28 164.00,193.14 C164.00,183.71 163.27,183.07 152.50,183.05 C152.15,183.04 151.80,183.04 151.47,183.04 C145.29,183.02 142.43,183.02 141.12,184.43 C140.96,184.61 140.82,184.81 140.70,185.03 C140.99,182.84 141.36,181.24 141.77,180.83 C143.51,179.09 156.01,178.52 160.41,179.97 L 164.00 181.16 L 164.00 193.96 C164.00,206.40 163.93,206.78 161.75,207.37 ZM 141.00 387.40 L 141.00 371.50 L 162.50 371.50 L 163.19 375.00 C163.28,375.42 163.35,375.92 163.42,376.50 L 141.00 375.93 L 141.00 378.74 L 141.00 386.62 L 141.00 387.38 ZM 141.00 388.20 L 141.00 394.50 L 141.00 394.50 L 141.00 398.07 L 163.47 397.50 C163.43,397.77 163.40,398.02 163.36,398.25 L 162.74 402.00 L 141.00 402.00 L 141.00 398.07 L 141.00 394.50 L 141.00 388.19 ZM 162.51 296.82 C162.76,296.58 163.13,294.05 163.44,290.74 L 163.44 290.71 C163.09,296.34 162.67,300.67 162.41,300.93 C161.66,301.68 144.94,301.95 143.00,301.24 C142.18,300.94 141.17,300.21 140.77,299.60 C140.52,299.24 140.34,297.44 140.21,294.97 C140.47,296.81 141.03,297.08 142.25,297.35 C145.19,297.99 161.78,297.55 162.51,296.82 ZM 164.04 279.21 L 160.99 278.15 C157.41,276.90 148.11,276.63 143.12,277.62 L 140.25 278.20 C140.34,276.91 140.46,275.97 140.61,275.58 C141.11,274.27 143.15,274.00 152.76,274.00 L 164.31 274.00 ZM 135.33 434.93 C132.83,435.63 122.29,435.99 98.80,436.19 C115.97,435.88 132.61,435.39 135.33,434.93 ZM 163.73 394.50 C163.67,395.52 163.59,396.44 163.50,397.23 L 163.50 394.50 L 163.73 394.50 ZM 163.50 377.22 C163.58,378.05 163.66,378.99 163.71,380.00 L 163.50 380.00 ZM 136.85 425.84 C136.88,424.70 136.91,423.44 136.93,422.03 C136.92,423.54 136.90,424.87 136.87,426.05 C136.86,425.98 136.86,425.91 136.85,425.84 ZM 230.81 403.11 C230.39,401.95 229.96,400.77 229.53,399.55 C229.47,399.37 229.41,399.19 229.35,399.00 C229.32,398.90 229.29,398.80 229.26,398.69 C229.78,400.22 230.30,401.69 230.81,403.11 ZM 135.85 434.71 C135.83,434.73 135.81,434.74 135.78,434.76 C135.99,434.54 136.18,434.15 136.33,433.66 C136.20,434.24 136.04,434.56 135.85,434.71 ZM 75.76 395.76 C74.38,400.03 73.03,404.13 72.11,406.79 C72.06,406.96 72.00,407.12 71.95,407.27 C72.85,404.65 74.28,400.31 75.76,395.76 Z" fill="rgb(65,189,11)"/>
<path d="M 136.34 361.22 C135.68,317.54 135.02,306.62 133.32,304.91 C132.57,304.17 129.13,303.80 123.94,303.91 C117.66,304.04 115.34,303.71 113.99,302.49 C112.36,301.01 112.01,301.08 109.49,303.42 C107.42,305.34 106.34,305.72 104.99,304.99 C102.69,303.77 101.67,305.02 99.48,311.75 C98.54,314.64 97.37,317.00 96.88,317.00 C96.40,317.00 96.00,317.88 96.00,318.95 C96.00,320.03 95.59,321.94 95.10,323.20 C95.59,321.94 95.99,319.91 95.98,318.70 C95.93,314.61 102.40,284.51 103.58,283.30 C104.23,282.64 105.08,280.39 105.46,278.30 C106.42,273.13 109.93,262.80 111.29,261.16 C112.09,260.19 114.67,259.89 120.45,260.08 C124.88,260.22 129.31,259.98 130.29,259.55 C131.28,259.11 132.25,258.92 132.45,259.13 C132.66,259.33 133.54,262.97 134.41,267.21 C135.52,272.59 136.00,280.37 136.00,292.96 C136.00,303.91 136.38,311.00 136.97,311.00 C137.87,311.00 137.70,358.36 137.09,394.47 C137.12,379.62 136.88,365.39 136.34,361.22 ZM 212.20 334.07 C209.95,324.44 207.81,316.67 207.18,315.97 C206.45,315.16 204.65,312.06 203.18,309.08 C200.43,303.52 199.11,302.73 193.00,303.01 C191.62,303.08 186.35,303.22 181.28,303.34 C175.82,303.46 171.57,304.03 170.88,304.72 C170.21,305.39 169.49,310.23 169.22,315.95 C168.95,321.48 168.34,326.00 167.86,326.00 C167.39,326.00 167.13,347.39 167.22,375.76 C167.21,376.72 167.21,377.72 167.20,378.78 L 167.17 373.50 C166.86,313.83 168.03,270.98 170.13,265.23 C171.24,262.21 173.89,261.36 183.86,260.79 L 192.22 260.32 L 194.11 263.41 C195.14,265.11 195.99,267.48 196.00,268.68 C196.00,269.88 196.60,271.46 197.34,272.20 C198.08,272.94 198.98,275.56 199.34,278.02 C200.55,286.40 201.27,289.50 202.16,290.07 C202.65,290.39 204.81,299.16 206.96,309.57 C208.52,317.11 210.38,325.80 212.20,334.07 ZM 163.18 303.49 C162.73,305.98 161.91,307.50 160.98,307.54 C160.17,307.57 155.40,307.45 150.39,307.27 L 141.28 306.93 L 140.64 300.82 C140.46,299.11 140.32,297.19 140.22,295.16 C140.35,297.53 140.53,299.25 140.77,299.60 C141.17,300.21 142.18,300.94 143.00,301.24 C144.94,301.95 161.66,301.68 162.41,300.93 C162.67,300.67 163.09,296.34 163.44,290.71 C163.66,289.87 163.83,288.82 163.92,287.76 C163.84,294.75 163.53,301.52 163.18,303.49 ZM 163.73 394.50 L 163.95 394.50 C163.85,399.24 163.67,403.13 163.42,404.50 L 162.87 407.50 L 141.00 407.50 L 141.00 402.00 L 162.74 402.00 L 163.36 398.25 C163.40,398.02 163.43,397.77 163.47,397.50 L 163.50 397.50 L 163.50 397.23 C163.59,396.44 163.67,395.52 163.73,394.50 ZM 161.75 207.37 C162.78,207.09 163.34,206.86 163.65,205.37 C163.48,207.95 163.26,209.82 163.02,210.43 C162.07,212.95 161.86,213.00 152.08,213.00 C146.60,213.00 141.84,212.56 141.51,212.02 C141.14,211.42 140.83,208.31 140.61,204.24 C141.06,205.86 141.91,207.09 142.78,207.32 C145.42,208.01 159.22,208.05 161.75,207.37 ZM 164.00 387.56 C164.00,387.45 164.00,387.35 164.00,387.25 L 164.00 380.00 L 163.71 380.00 C163.66,378.99 163.58,378.05 163.50,377.22 L 163.50 376.50 L 163.42 376.50 C163.35,375.92 163.28,375.42 163.19,375.00 L 162.50 371.50 L 141.25 371.50 C141.45,368.21 141.76,366.95 142.25,366.92 C142.94,366.87 147.87,366.76 153.20,366.67 C162.76,366.50 162.92,366.54 163.53,368.98 C164.00,370.85 164.14,382.46 164.00,392.01 L 164.00 391.00 L 164.00 391.00 ZM 163.70 274.00 L 152.76 274.00 C143.15,274.00 141.11,274.27 140.61,275.58 C140.54,275.75 140.48,276.02 140.43,276.38 C140.49,275.67 140.56,275.00 140.63,274.37 L 141.25 269.24 L 151.21 269.07 C157.60,268.96 161.68,269.32 162.59,270.07 C163.14,270.53 163.49,271.62 163.70,274.00 ZM 140.70 185.03 C140.57,185.28 140.46,185.55 140.37,185.85 C140.44,184.06 140.54,182.55 140.68,181.50 L 141.50 175.50 L 151.15 175.22 C151.51,175.20 151.87,175.19 152.22,175.18 C157.45,175.02 160.36,174.93 161.97,176.33 C162.99,177.21 163.50,178.68 163.75,181.07 L 160.41 179.97 C156.01,178.52 143.51,179.09 141.77,180.83 C141.36,181.24 140.99,182.84 140.70,185.03 ZM 133.60 435.23 C129.51,435.75 118.99,436.02 98.38,436.19 C98.52,436.19 98.66,436.19 98.80,436.19 C118.70,436.02 129.30,435.74 133.60,435.23 ZM 220.44 369.05 C220.00,367.41 219.56,365.73 219.10,364.00 C219.05,363.81 218.99,363.58 218.92,363.29 C218.98,363.54 219.05,363.78 219.10,364.00 C219.56,365.73 220.00,367.41 220.44,369.05 ZM 164.00 188.82 C164.00,189.66 164.00,190.55 164.00,191.49 C164.00,191.98 164.00,192.49 164.00,193.01 ZM 163.94 284.11 L 163.95 283.97 L 163.95 284.22 C163.94,284.19 163.94,284.15 163.94,284.11 ZM 230.81 403.11 C230.61,402.55 230.41,401.99 230.20,401.42 C230.43,402.05 230.66,402.68 230.88,403.30 Z" fill="rgb(90,165,9)"/>
<path d="M 138.00 237.50 C138.00,251.17 137.64,259.00 137.00,259.00 C136.39,259.00 135.99,254.57 135.98,247.75 C135.97,241.56 135.54,233.63 135.04,230.12 C134.25,224.71 133.62,223.31 130.81,220.91 C128.99,219.35 127.21,218.06 126.85,218.04 C126.49,218.02 125.65,219.46 124.99,221.25 L 123.79 224.50 L 122.42 221.33 C121.67,219.58 120.63,217.89 120.10,217.56 C118.49,216.57 115.14,222.28 115.68,225.11 C115.98,226.69 115.56,228.30 114.59,229.27 C113.71,230.14 113.00,231.79 113.00,232.93 C113.00,234.07 112.50,235.00 111.88,235.00 C111.21,235.00 111.01,234.10 111.37,232.75 C111.70,231.51 113.20,222.40 114.69,212.50 C116.19,202.60 117.68,194.27 118.01,194.00 C118.90,193.24 121.00,185.57 121.00,183.04 C121.00,181.81 121.89,179.56 122.98,178.03 C124.06,176.51 125.40,174.08 125.95,172.63 C127.24,169.23 128.12,169.32 130.93,173.13 C133.88,177.11 135.98,190.47 135.99,205.25 C136.00,211.75 136.40,216.00 137.00,216.00 C137.64,216.00 138.00,223.83 138.00,237.50 ZM 168.68 276.99 C168.20,284.28 167.82,294.54 167.55,307.21 C167.61,224.56 167.93,197.15 168.88,190.50 C169.59,185.55 170.41,179.36 170.71,176.75 C171.17,172.73 171.58,172.00 173.38,172.03 C178.52,172.11 182.72,178.92 184.75,190.50 C185.04,192.15 185.67,193.76 186.16,194.07 C186.64,194.38 187.48,197.53 188.03,201.07 C190.98,220.26 191.91,225.69 193.93,235.83 C195.20,242.15 195.29,245.00 194.22,245.00 C193.79,245.00 192.84,241.74 192.12,237.75 C191.39,233.74 189.98,229.61 188.97,228.50 C187.97,227.40 187.00,224.93 186.82,223.00 C186.56,220.11 186.13,219.54 184.36,219.72 C182.94,219.86 182.04,219.26 181.69,217.92 C181.20,216.06 180.67,216.26 175.23,220.41 L 169.30 224.92 L 168.66 231.71 C168.30,235.44 168.08,248.62 168.17,261.00 C168.25,273.39 168.41,278.53 168.68,276.99 ZM 163.18 303.49 C163.49,301.71 163.78,296.02 163.89,289.79 L 163.89 289.85 C163.78,303.41 163.43,315.17 163.10,316.00 C162.61,317.23 160.57,317.45 151.82,317.22 L 141.14 316.93 L 140.63 314.22 C140.38,312.91 140.23,304.40 140.17,294.61 C140.18,294.73 140.20,294.86 140.21,294.97 C140.22,295.03 140.22,295.10 140.22,295.16 C140.32,297.19 140.46,299.11 140.64,300.82 L 141.28 306.93 L 144.00 307.03 C141.03,307.14 141.00,307.67 141.00,309.17 C141.00,311.47 141.16,311.50 152.00,311.54 C162.47,311.58 163.00,311.48 163.00,309.51 C163.00,308.35 162.77,307.84 160.42,307.55 C160.68,307.55 160.87,307.55 160.98,307.54 C161.91,307.50 162.73,305.98 163.18,303.49 ZM 163.42 219.75 L 162.75 223.00 L 141.12 223.00 L 140.57 218.75 C140.36,217.08 140.23,210.30 140.21,201.91 C140.27,202.50 140.35,203.03 140.43,203.49 C140.48,203.74 140.54,204.00 140.61,204.24 C140.83,208.31 141.14,211.42 141.51,212.02 C141.65,212.24 142.58,212.46 144.01,212.62 C141.15,212.82 141.00,213.34 141.00,214.68 C141.00,215.90 141.76,217.06 142.75,217.33 C143.71,217.59 148.55,217.73 153.50,217.65 C162.31,217.50 162.51,217.45 162.79,215.00 L 163.08 212.50 L 161.40 212.50 C162.34,212.14 162.62,211.51 163.02,210.43 C163.26,209.82 163.48,207.95 163.65,205.37 C163.98,203.71 164.00,200.51 164.00,193.96 L 164.00 193.14 L 164.00 193.01 C164.00,192.55 164.00,192.10 164.00,191.67 C164.06,204.12 163.87,217.53 163.42,219.75 ZM 141.00 387.40 C140.98,387.69 140.98,387.95 141.00,388.19 L 141.00 394.50 L 141.00 394.59 L 140.79 383.00 C140.54,369.52 140.50,358.03 140.70,357.46 C140.93,356.79 144.43,356.56 150.35,356.82 C157.82,357.14 159.94,356.92 161.20,355.66 C163.25,353.61 164.02,354.53 163.92,358.92 C163.88,360.89 163.62,361.94 163.34,361.26 C162.96,360.33 162.33,360.29 160.81,361.10 C159.64,361.73 155.06,362.04 149.89,361.84 L 141.00 361.50 L 141.00 364.13 L 141.00 366.75 L 151.95 366.63 C155.82,366.58 158.32,366.56 159.96,366.65 C162.07,366.75 162.78,367.06 163.16,367.83 C163.32,368.14 163.41,368.52 163.53,368.98 C163.66,369.50 163.77,370.75 163.85,372.51 C163.77,370.75 163.66,369.50 163.53,368.98 C163.41,368.52 163.31,368.14 163.16,367.83 C162.79,367.09 162.08,366.77 159.96,366.65 C158.50,366.58 156.37,366.61 153.20,366.67 C147.87,366.76 142.94,366.87 142.25,366.92 C141.76,366.95 141.45,368.21 141.25,371.50 L 141.00 371.50 L 141.00 386.75 ZM 163.91 413.50 C164.00,417.74 162.71,419.56 161.04,417.55 C160.08,416.40 157.81,416.00 152.13,416.02 C147.93,416.02 143.84,416.45 143.03,416.96 C141.05,418.21 140.00,416.42 140.13,412.00 C140.19,410.08 140.42,409.17 140.64,410.00 C140.97,411.22 142.70,411.44 149.96,411.18 C154.99,411.00 159.74,411.32 160.86,411.92 C162.32,412.71 162.97,412.66 163.34,411.74 C163.62,411.06 163.87,411.85 163.91,413.50 ZM 163.70 274.00 C163.49,271.62 163.14,270.53 162.59,270.07 C162.23,269.78 161.40,269.55 160.14,269.38 C162.89,269.18 163.00,268.65 163.00,267.25 C163.00,265.05 162.74,265.00 152.00,265.00 C142.00,265.00 141.00,265.17 141.00,266.83 C141.00,267.84 141.19,268.85 141.42,269.08 C141.47,269.13 141.74,269.18 142.20,269.23 L 141.25 269.24 L 140.63 274.37 C140.56,275.00 140.49,275.67 140.43,276.38 C140.36,276.85 140.30,277.47 140.25,278.20 L 140.16 278.22 C140.21,269.69 140.35,262.80 140.57,262.00 C140.90,260.78 143.05,260.50 151.95,260.50 C162.62,260.50 162.93,260.56 163.50,262.85 C163.69,263.59 163.82,267.90 163.89,274.00 ZM 141.00 173.37 C141.00,174.75 141.20,175.24 144.59,175.41 L 141.50 175.50 L 140.68 181.50 C140.54,182.55 140.44,184.06 140.37,185.85 C140.36,185.92 140.34,185.98 140.32,186.05 C140.52,171.04 140.87,167.69 142.00,166.98 C143.76,165.87 160.00,165.69 161.57,166.77 C162.16,167.17 162.94,168.30 163.30,169.28 C163.58,170.02 163.77,174.78 163.89,181.12 L 163.75 181.07 C163.50,178.68 162.99,177.21 161.97,176.33 C161.41,175.85 160.70,175.54 159.78,175.36 C162.51,175.16 163.00,174.73 163.00,173.79 C163.00,171.14 159.77,170.00 152.32,170.01 C143.30,170.03 141.00,170.71 141.00,173.37 ZM 178.09 261.25 C173.25,261.81 171.34,262.72 170.39,264.62 C170.55,264.18 170.70,263.86 170.86,263.67 C171.90,262.41 173.59,261.76 178.09,261.25 ZM 189.75 260.46 L 183.86 260.79 C182.06,260.89 180.51,261.00 179.15,261.14 C180.84,260.97 182.87,260.81 185.33,260.66 C187.30,260.53 188.70,260.44 189.75,260.46 Z" fill="rgb(137,116,6)"/>
<path d="M 137.87 249.68 C137.96,273.51 137.85,306.75 137.60,338.49 C137.60,322.50 137.41,311.00 136.97,311.00 C136.38,311.00 136.00,303.91 136.00,292.96 C136.00,280.37 135.52,272.59 134.41,267.21 C133.54,262.97 132.66,259.33 132.45,259.13 C132.25,258.92 131.28,259.11 130.29,259.55 C129.31,259.98 124.88,260.22 120.45,260.08 C114.67,259.89 112.09,260.19 111.29,261.16 C109.93,262.80 106.42,273.13 105.46,278.30 C105.08,280.39 104.23,282.64 103.58,283.30 C102.67,284.23 98.62,302.33 96.83,312.45 C97.35,309.41 98.07,305.55 98.87,301.63 C100.44,293.86 102.30,284.12 102.99,280.00 C103.68,275.88 104.62,270.92 105.09,269.00 C105.74,266.35 108.53,250.20 111.20,234.13 C111.25,234.68 111.48,235.00 111.88,235.00 C112.50,235.00 113.00,234.07 113.00,232.93 C113.00,231.79 113.71,230.14 114.59,229.27 C115.56,228.30 115.98,226.69 115.68,225.11 C115.14,222.28 118.49,216.57 120.10,217.56 C120.63,217.89 121.67,219.58 122.42,221.33 L 123.79 224.50 L 124.99 221.25 C125.65,219.46 126.49,218.02 126.85,218.04 C127.21,218.06 128.99,219.35 130.81,220.91 C133.62,223.31 134.25,224.71 135.04,230.12 C135.54,233.63 135.97,241.56 135.98,247.75 C135.99,254.57 136.39,259.00 137.00,259.00 C137.41,259.00 137.71,255.71 137.87,249.68 ZM 212.20 334.07 C210.38,325.80 208.52,317.11 206.96,309.57 C204.81,299.16 202.65,290.39 202.16,290.07 C201.27,289.50 200.55,286.40 199.34,278.02 C198.98,275.56 198.08,272.94 197.34,272.20 C196.60,271.46 196.00,269.88 196.00,268.68 C195.99,267.48 195.14,265.11 194.11,263.41 L 192.22 260.32 L 189.75 260.46 C188.70,260.44 187.30,260.53 185.33,260.66 C182.87,260.81 180.84,260.97 179.15,261.14 L 179.15 261.14 C178.78,261.17 178.43,261.21 178.09,261.25 L 178.09 261.25 C173.59,261.76 171.90,262.41 170.86,263.67 C170.70,263.86 170.55,264.18 170.39,264.62 C170.30,264.81 170.21,265.02 170.13,265.23 C169.58,266.74 169.10,270.78 168.68,276.99 C168.41,278.53 168.25,273.39 168.17,261.00 C168.08,248.62 168.30,235.44 168.66,231.71 L 169.30 224.92 L 175.23 220.41 C180.67,216.26 181.20,216.06 181.69,217.92 C182.04,219.26 182.94,219.86 184.36,219.72 C186.13,219.54 186.56,220.11 186.82,223.00 C187.00,224.93 187.97,227.40 188.97,228.50 C189.98,229.61 191.39,233.74 192.12,237.75 C192.84,241.74 193.79,245.00 194.22,245.00 C194.65,245.00 194.89,244.54 194.95,243.57 C195.28,245.80 195.60,247.94 195.83,249.50 C196.32,252.80 197.70,260.45 198.89,266.50 C200.08,272.55 201.46,279.75 201.96,282.50 C204.86,298.54 208.71,317.78 212.24,334.24 ZM 163.53 368.98 C163.41,368.52 163.32,368.14 163.16,367.83 L 163.16 367.83 C162.79,367.09 162.08,366.77 159.96,366.65 L 159.96 366.65 C158.32,366.56 155.82,366.58 151.95,366.63 L 141.00 366.75 L 141.00 364.13 L 141.00 361.50 L 149.89 361.84 C155.06,362.04 159.64,361.73 160.81,361.10 C162.33,360.29 162.96,360.33 163.34,361.26 C163.51,361.69 163.68,361.43 163.79,360.68 C163.91,365.17 164.00,371.91 164.02,379.62 C164.00,377.79 163.97,376.07 163.92,374.57 C163.90,373.83 163.87,373.13 163.85,372.51 C163.77,370.75 163.66,369.50 163.53,368.98 ZM 140.79 383.00 L 141.00 394.59 L 141.00 398.07 L 141.00 402.00 L 141.00 407.50 L 162.87 407.50 L 163.42 404.50 C163.67,403.13 163.85,399.24 163.95,394.50 L 163.99 394.50 C163.93,401.38 163.81,407.40 163.65,411.58 C163.56,411.43 163.45,411.47 163.34,411.74 C162.97,412.66 162.32,412.71 160.86,411.92 C159.74,411.32 154.99,411.00 149.96,411.18 C142.88,411.43 141.06,411.23 140.67,410.09 C140.45,394.49 140.36,359.03 140.62,357.95 C140.63,357.93 140.64,357.90 140.65,357.87 C140.51,360.12 140.56,370.74 140.79,383.00 ZM 141.00 173.37 C141.00,170.71 143.30,170.03 152.32,170.01 C159.77,170.00 163.00,171.14 163.00,173.79 C163.00,174.73 162.51,175.16 159.78,175.36 C158.06,175.00 155.63,175.08 152.22,175.18 C151.87,175.19 151.51,175.20 151.15,175.22 L 144.59 175.41 C141.20,175.24 141.00,174.75 141.00,173.37 ZM 141.00 214.68 C141.00,213.34 141.15,212.82 144.01,212.62 C145.98,212.85 148.91,213.00 152.08,213.00 C157.67,213.00 160.14,212.98 161.40,212.50 L 163.08 212.50 L 162.79 215.00 C162.51,217.45 162.31,217.50 153.50,217.65 C148.55,217.73 143.71,217.59 142.75,217.33 C141.76,217.06 141.00,215.90 141.00,214.68 ZM 150.39 307.27 C154.70,307.42 158.83,307.54 160.42,307.55 C162.77,307.84 163.00,308.35 163.00,309.51 C163.00,311.48 162.47,311.58 152.00,311.54 C141.16,311.50 141.00,311.47 141.00,309.17 C141.00,307.67 141.03,307.14 144.00,307.03 ZM 163.00 267.25 C163.00,268.65 162.89,269.18 160.14,269.38 C158.16,269.11 155.12,269.00 151.21,269.07 L 142.20 269.23 C141.74,269.18 141.47,269.13 141.42,269.08 C141.19,268.85 141.00,267.84 141.00,266.83 C141.00,265.17 142.00,265.00 152.00,265.00 C162.74,265.00 163.00,265.05 163.00,267.25 ZM 163.92 289.50 C163.88,303.25 163.55,315.17 163.18,316.00 C162.93,316.54 162.39,316.89 161.11,317.08 C162.37,316.89 162.88,316.54 163.10,316.00 C163.43,315.17 163.78,303.41 163.89,289.85 L 163.89 289.79 C163.90,289.25 163.91,288.69 163.92,288.14 C163.92,288.59 163.92,289.05 163.92,289.50 ZM 116.04 204.01 C116.29,202.30 116.47,201.01 116.55,200.25 C116.94,196.81 117.56,194.00 117.92,194.00 C117.98,194.00 118.05,193.95 118.13,193.87 C118.08,193.92 118.04,193.97 118.01,194.00 C117.78,194.19 117.00,198.25 116.04,204.01 ZM 154.01 416.03 C158.33,416.11 160.20,416.53 161.04,417.55 C161.04,417.55 161.05,417.56 161.05,417.56 C161.75,418.39 162.38,418.56 162.87,418.16 C162.35,418.90 162.01,418.72 161.05,417.56 C160.38,416.75 157.40,416.22 154.01,416.03 ZM 140.82 416.65 C141.31,417.46 142.05,417.58 143.03,416.96 C143.19,416.86 143.47,416.76 143.86,416.67 C143.49,416.78 143.18,416.90 142.93,417.04 C141.87,417.60 140.94,417.72 140.86,417.29 C140.85,417.19 140.83,416.97 140.82,416.65 ZM 141.47 357.04 C142.57,356.59 145.00,356.58 150.32,356.82 C145.89,356.62 142.82,356.70 141.47,357.04 ZM 193.17 231.95 C192.65,229.26 192.18,226.76 191.70,223.99 C191.81,224.58 191.91,225.09 192.00,225.50 C192.29,226.88 192.74,229.35 193.17,231.95 ZM 111.70 231.10 C112.50,226.28 113.28,221.55 113.96,217.27 C113.03,223.27 112.18,228.49 111.70,231.10 ZM 187.42 197.81 C186.97,195.78 186.48,194.28 186.16,194.07 C186.56,194.33 186.89,195.08 187.42,197.81 ZM 121.00 182.89 C121.00,181.75 121.89,179.56 122.98,178.03 C121.89,179.56 121.00,181.81 121.00,183.04 C121.00,183.66 120.87,184.59 120.67,185.66 C120.87,184.56 121.00,183.58 121.00,182.89 ZM 137.29 216.63 C137.20,216.21 137.10,216.00 137.00,216.00 C136.84,216.00 136.69,215.70 136.57,215.14 C136.72,215.72 136.92,216.00 137.14,216.00 C137.20,216.00 137.25,216.22 137.29,216.63 ZM 95.97 319.12 C95.90,320.34 95.54,322.08 95.10,323.20 C95.51,322.16 95.86,320.47 95.97,319.12 ZM 163.49 262.80 C163.33,262.18 163.19,261.73 162.84,261.40 C163.16,261.68 163.31,262.03 163.44,262.50 C163.45,262.56 163.47,262.66 163.49,262.80 ZM 189.39 209.88 C189.10,208.03 188.79,206.01 188.45,203.80 C188.72,205.51 189.03,207.52 189.39,209.88 ZM 164.00 393.43 L 164.00 392.01 C164.01,391.58 164.01,391.15 164.02,390.71 C164.01,391.63 164.01,392.54 164.00,393.43 ZM 163.51 355.09 C163.41,354.91 163.30,354.78 163.17,354.70 C163.29,354.75 163.39,354.83 163.47,354.95 C163.48,354.97 163.50,355.02 163.51,355.09 ZM 161.41 355.45 C161.34,355.52 161.27,355.59 161.20,355.66 C160.79,356.07 160.28,356.37 159.53,356.58 C160.30,356.36 160.81,356.04 161.25,355.60 C161.31,355.55 161.36,355.50 161.41,355.45 ZM 133.60 435.23 C133.79,435.21 133.96,435.19 134.13,435.16 C133.15,435.31 131.71,435.44 129.74,435.55 C131.39,435.46 132.67,435.35 133.60,435.23 Z" fill="rgb(116,140,8)"/>
<path d="M 187.42 197.81 C186.89,195.08 186.56,194.33 186.16,194.07 C185.67,193.76 185.04,192.15 184.75,190.50 C182.72,178.92 178.52,172.11 173.38,172.03 C171.58,172.00 171.17,172.73 170.71,176.75 C170.41,179.36 169.59,185.55 168.88,190.50 C167.93,197.15 167.61,224.56 167.55,307.21 C167.44,312.64 167.34,318.51 167.28,324.78 L 167.25 313.50 C166.95,163.19 167.93,124.00 172.02,124.00 C172.99,124.00 179.00,142.86 179.00,145.91 C179.00,147.06 179.38,148.00 179.85,148.00 C180.33,148.00 181.28,152.16 181.98,157.25 C182.68,162.34 183.88,170.55 184.65,175.50 C185.42,180.45 186.47,187.88 186.98,192.00 C187.91,199.55 188.63,204.94 189.66,211.46 L 192.01 225.54 C191.03,219.91 190.29,215.47 189.66,211.46 L 189.39 209.88 C189.03,207.52 188.72,205.51 188.45,203.80 L 188.45 203.80 C188.31,202.92 188.17,202.01 188.03,201.07 C187.85,199.91 187.64,198.80 187.42,197.81 ZM 121.00 182.89 C121.00,183.58 120.87,184.56 120.67,185.66 C120.08,188.74 118.83,192.92 118.13,193.87 C118.05,193.95 117.98,194.00 117.92,194.00 C117.73,194.00 117.46,194.79 117.20,196.05 C119.08,183.66 120.82,171.83 122.09,162.50 C124.62,143.93 130.06,123.30 132.09,124.55 C133.58,125.48 134.98,132.39 136.25,145.14 C136.80,150.66 137.14,179.35 137.30,216.68 C137.30,216.67 137.30,216.65 137.29,216.63 C137.25,216.22 137.20,216.00 137.14,216.00 C136.92,216.00 136.72,215.72 136.57,215.14 C136.21,213.59 136.00,210.03 135.99,205.25 C135.98,190.47 133.88,177.11 130.93,173.13 C128.12,169.32 127.24,169.23 125.95,172.63 C125.40,174.08 124.06,176.51 122.98,178.03 C121.89,179.56 121.00,181.75 121.00,182.89 ZM 164.00 188.82 L 164.00 187.51 C164.02,190.11 164.03,192.82 164.03,195.60 C164.05,212.90 163.72,227.61 163.28,228.28 C162.73,229.15 159.41,229.42 151.82,229.22 L 141.14 228.93 L 140.60 226.22 C140.32,224.79 140.16,213.52 140.13,200.86 C140.15,201.23 140.18,201.58 140.21,201.91 C140.23,210.30 140.36,217.08 140.57,218.75 L 141.12 223.00 L 162.75 223.00 L 163.42 219.75 C163.87,217.53 164.06,204.12 164.00,191.67 L 164.00 191.49 L 164.00 191.49 C164.00,190.55 164.00,189.66 164.00,188.82 ZM 163.91 413.50 C163.88,412.50 163.78,411.82 163.65,411.58 C163.81,407.40 163.93,401.38 163.99,394.50 L 164.00 394.50 L 164.00 393.43 L 164.00 393.43 C164.01,392.54 164.01,391.63 164.02,390.71 C164.02,390.56 164.02,390.41 164.02,390.26 C164.00,409.84 163.86,425.48 163.70,425.64 C163.53,425.81 162.39,424.94 161.16,423.72 C159.25,421.81 157.89,421.51 151.55,421.56 C147.00,421.60 143.55,422.12 142.58,422.93 C141.71,423.65 140.93,424.08 140.85,423.87 C140.70,423.53 140.61,420.59 140.55,416.07 C140.62,416.29 140.71,416.49 140.82,416.65 C140.83,416.97 140.85,417.19 140.86,417.29 C140.94,417.72 141.87,417.60 142.93,417.04 C143.18,416.90 143.49,416.78 143.86,416.67 C145.45,416.30 148.76,416.02 152.13,416.02 C152.80,416.01 153.43,416.02 154.01,416.03 C157.40,416.22 160.38,416.75 161.05,417.56 C161.75,418.39 162.38,418.56 162.87,418.16 C163.55,417.60 163.96,415.96 163.91,413.50 ZM 141.47 357.04 C141.24,357.09 141.06,357.16 140.93,357.23 C141.03,353.62 141.15,351.41 141.28,351.33 C141.80,351.00 146.17,350.82 150.99,350.92 C158.01,351.06 160.09,350.76 161.43,349.43 C162.34,348.51 163.31,347.98 163.57,348.24 C163.68,348.35 163.78,351.44 163.86,356.53 C163.79,355.89 163.68,355.41 163.51,355.09 C163.50,355.02 163.48,354.97 163.47,354.95 C163.39,354.83 163.29,354.75 163.17,354.70 C162.77,354.46 162.19,354.72 161.41,355.45 C161.36,355.50 161.31,355.55 161.25,355.60 C160.81,356.04 160.30,356.36 159.53,356.58 C157.99,357.01 155.38,357.04 150.35,356.82 L 150.32 356.82 C145.00,356.58 142.57,356.59 141.47,357.04 ZM 163.81 301.55 C163.80,314.41 163.59,323.80 163.26,324.12 C162.84,324.53 161.60,324.18 160.50,323.34 C158.94,322.15 156.59,321.92 149.77,322.28 L 141.04 322.75 L 140.55 319.62 C140.36,318.47 140.25,311.28 140.23,301.61 C140.31,308.20 140.44,313.24 140.63,314.22 L 141.14 316.93 L 151.82 317.22 C156.72,317.35 159.51,317.33 161.11,317.08 L 161.11 317.08 C162.39,316.89 162.93,316.54 163.18,316.00 C163.44,315.43 163.67,309.61 163.81,301.55 ZM 163.95 181.14 L 163.89 181.12 C163.77,174.78 163.58,170.02 163.30,169.28 C162.94,168.30 162.16,167.17 161.57,166.77 C160.00,165.69 143.76,165.87 142.00,166.98 C140.87,167.69 140.52,171.04 140.32,186.05 C140.24,186.38 140.18,186.74 140.14,187.14 C140.19,174.65 140.36,163.77 140.65,162.75 C141.07,161.22 142.50,161.00 151.96,161.00 C160.88,161.00 162.89,161.28 163.39,162.57 C163.62,163.18 163.83,170.71 163.95,181.14 ZM 163.49 262.80 C163.47,262.66 163.45,262.56 163.44,262.50 C163.31,262.03 163.16,261.68 162.84,261.40 C161.94,260.53 159.62,260.50 151.95,260.50 C143.05,260.50 140.90,260.78 140.57,262.00 C140.52,262.16 140.48,262.57 140.44,263.18 L 140.50 255.70 L 163.50 255.70 L 163.56 263.22 C163.54,263.05 163.52,262.93 163.50,262.85 ZM 140.49 409.70 C140.46,403.88 140.46,396.84 140.50,389.69 C140.53,397.36 140.59,404.85 140.67,410.09 C140.66,410.06 140.65,410.03 140.64,410.00 C140.59,409.81 140.54,409.72 140.49,409.70 ZM 116.04 204.01 C115.61,206.57 115.15,209.46 114.69,212.50 C114.45,214.12 114.20,215.72 113.96,217.27 C113.28,221.55 112.50,226.28 111.70,231.10 C111.68,231.25 111.65,231.38 111.63,231.51 C113.23,221.67 114.92,210.90 116.54,200.37 C116.45,201.14 116.28,202.39 116.04,204.01 ZM 197.44 258.83 C198.50,263.93 200.27,273.18 201.96,282.50 C201.46,279.75 200.08,272.55 198.89,266.50 C198.41,264.07 197.90,261.38 197.44,258.83 ZM 164.02 377.48 C163.98,370.66 163.90,364.74 163.79,360.68 C163.84,360.39 163.87,360.01 163.90,359.57 C163.96,364.45 164.00,370.61 164.02,377.48 ZM 99.03 300.65 C100.09,295.33 101.21,289.61 102.02,285.38 C101.15,290.11 99.94,296.33 98.87,301.63 C98.20,304.91 97.59,308.15 97.10,310.90 C97.62,307.90 98.30,304.31 99.03,300.65 ZM 133.18 435.28 C128.86,435.78 118.73,436.03 98.38,436.19 C114.27,436.06 124.17,435.87 129.74,435.55 C131.15,435.47 132.29,435.38 133.18,435.28 ZM 106.54 261.39 C105.85,265.28 105.33,268.03 105.09,269.00 C105.09,269.02 105.08,269.05 105.07,269.07 C105.37,267.51 105.67,265.96 105.95,264.50 C106.13,263.56 106.33,262.52 106.54,261.39 Z" fill="rgb(168,86,4)"/>
<path d="M 137.00 407.22 C137.05,403.07 137.08,398.75 137.09,394.47 C137.40,376.16 137.59,354.95 137.60,338.49 C137.61,336.93 137.62,335.35 137.63,333.78 C137.79,365.52 138.01,386.00 138.25,386.00 C138.66,386.00 139.00,383.75 139.00,381.00 C139.00,378.25 139.34,376.00 139.75,376.00 C140.16,376.00 140.50,369.15 140.50,360.78 L 140.50 345.55 L 150.50 345.53 L 160.50 345.50 L 162.16 342.17 C163.50,339.48 163.91,339.20 164.30,340.67 C164.72,342.33 164.78,342.34 164.88,340.75 C164.95,339.79 165.45,339.00 166.00,339.00 C166.55,339.00 167.00,338.10 167.00,337.00 C167.00,335.90 166.55,335.00 166.00,335.00 C165.45,335.00 164.95,333.76 164.88,332.25 C164.80,330.36 164.62,330.08 164.29,331.36 C163.89,332.93 163.51,332.72 161.85,330.00 L 159.90 326.78 L 150.20 327.14 L 140.50 327.50 L 140.50 319.19 C140.51,319.38 140.53,319.52 140.55,319.62 L 141.04 322.75 L 149.77 322.28 C156.59,321.92 158.94,322.15 160.50,323.34 C161.60,324.18 162.84,324.53 163.26,324.12 C163.59,323.80 163.80,314.41 163.81,301.55 C163.87,297.90 163.91,293.79 163.92,289.50 C163.92,289.05 163.92,288.59 163.92,288.14 C163.92,288.02 163.92,287.89 163.92,287.76 C163.97,287.20 164.00,286.63 164.00,286.09 C164.00,285.35 163.99,284.73 163.95,284.22 L 163.95 283.97 L 164.28 279.29 L 164.04 279.21 L 164.31 274.00 L 163.89 274.00 C163.83,268.56 163.71,264.55 163.56,263.22 L 163.50 255.70 L 140.50 255.70 L 140.50 251.50 L 152.00 250.95 C158.32,250.65 163.71,250.56 163.96,250.75 C164.21,250.93 164.31,253.82 164.18,257.16 C163.93,263.35 164.56,267.00 165.86,267.00 C166.26,267.00 166.40,253.39 166.18,236.75 C165.68,200.09 167.74,92.29 168.98,90.08 C169.75,88.70 169.93,88.69 170.39,90.00 C171.90,94.30 175.07,109.00 175.94,115.77 C178.54,136.00 179.00,139.13 179.90,143.17 C180.43,145.55 181.40,151.77 182.06,157.00 C182.71,162.23 183.88,170.55 184.65,175.50 C183.88,170.55 182.68,162.34 181.98,157.25 C181.28,152.16 180.33,148.00 179.85,148.00 C179.38,148.00 179.00,147.06 179.00,145.91 C179.00,142.86 172.99,124.00 172.02,124.00 C167.93,124.00 166.95,163.19 167.25,313.50 L 167.28 324.78 C167.12,339.13 167.08,355.56 167.17,373.50 L 167.20 378.78 C167.17,383.58 167.18,389.34 167.22,396.05 C167.16,399.92 167.16,404.99 167.23,411.25 L 167.34 421.46 C167.17,422.87 167.11,425.17 167.21,427.75 L 167.50 435.50 L 181.50 436.04 L 181.73 436.05 C171.79,435.87 164.97,435.75 164.25,435.76 C162.36,435.78 162.00,435.25 162.00,432.47 C162.00,427.24 159.97,426.00 151.44,426.00 C145.10,426.00 143.83,426.29 142.77,428.00 C142.08,429.10 141.15,430.00 140.69,430.00 C140.24,430.00 140.01,422.89 140.18,414.16 C140.24,414.94 140.37,415.58 140.55,416.07 C140.61,420.59 140.70,423.53 140.85,423.87 C140.93,424.08 141.71,423.65 142.58,422.93 C143.55,422.12 147.00,421.60 151.55,421.56 C157.89,421.51 159.25,421.81 161.16,423.72 C162.39,424.94 163.53,425.81 163.70,425.64 C163.86,425.48 164.00,409.84 164.02,390.26 C164.06,386.70 164.06,382.97 164.02,379.62 C164.02,378.90 164.02,378.18 164.02,377.48 C164.00,370.61 163.96,364.45 163.90,359.57 C163.91,359.37 163.92,359.15 163.92,358.92 C163.94,357.96 163.92,357.16 163.86,356.53 C163.78,351.44 163.68,348.35 163.57,348.24 C163.31,347.98 162.34,348.51 161.43,349.43 C160.09,350.76 158.01,351.06 150.99,350.92 C146.17,350.82 141.80,351.00 141.28,351.33 C141.15,351.41 141.03,353.62 140.93,357.23 C140.80,357.30 140.72,357.37 140.70,357.46 C140.68,357.51 140.66,357.65 140.65,357.87 C140.64,357.90 140.63,357.93 140.62,357.95 C140.45,358.67 140.43,374.54 140.50,389.69 C140.46,396.84 140.46,403.88 140.49,409.70 C140.39,409.66 140.30,409.94 140.23,410.48 C140.30,403.36 140.11,398.00 139.75,398.00 C139.34,398.00 139.00,397.33 139.00,396.50 C139.00,395.67 138.55,395.00 138.00,395.00 C137.37,395.00 137.00,402.13 137.00,414.38 C137.00,419.31 136.96,423.15 136.88,426.10 L 136.87 426.05 C136.90,424.87 136.92,423.54 136.93,422.03 L 136.93 422.03 C136.98,418.78 137.00,414.77 137.00,409.88 C137.00,408.98 137.00,408.09 137.00,407.22 ZM 137.40 217.23 C137.37,217.02 137.34,216.84 137.30,216.68 C137.14,179.35 136.80,150.66 136.25,145.14 C134.98,132.39 133.58,125.48 132.09,124.55 C130.25,123.42 125.63,140.20 122.89,157.15 C124.55,145.03 127.20,124.72 127.97,118.00 C128.74,111.35 132.87,90.83 133.60,90.08 C136.50,87.07 137.24,107.10 137.40,217.23 ZM 164.06 231.75 C164.03,233.54 163.66,234.91 163.25,234.80 C162.84,234.69 157.55,234.36 151.50,234.05 L 140.50 233.50 L 140.46 224.59 C140.51,225.41 140.55,225.96 140.60,226.22 L 141.14 228.93 L 151.82 229.22 C159.41,229.42 162.73,229.15 163.28,228.28 C163.71,227.61 164.05,213.09 164.03,195.93 C164.15,210.50 164.18,225.16 164.06,231.75 ZM 163.67 166.83 C163.58,164.36 163.49,162.83 163.39,162.57 C162.89,161.28 160.88,161.00 151.96,161.00 C142.61,161.00 141.11,161.22 140.66,162.70 C140.80,159.38 140.99,157.53 141.22,157.25 C142.79,155.33 162.60,155.51 163.34,157.46 C163.45,157.73 163.56,161.33 163.67,166.83 ZM 221.03 436.77 C235.11,436.82 246.50,436.62 247.37,436.17 C247.36,436.21 247.34,436.25 247.32,436.28 C246.97,436.85 238.55,437.01 221.03,436.77 ZM 192.00 225.50 C191.91,225.09 191.81,224.58 191.70,223.99 C191.04,220.19 190.34,215.89 189.39,209.88 L 189.66 211.46 L 192.01 225.54 L 192.00 225.50 ZM 120.84 171.45 C119.86,178.31 118.73,185.97 117.53,193.90 C118.49,187.48 119.55,180.25 120.84,171.45 ZM 106.54 261.39 C106.33,262.52 106.13,263.56 105.95,264.50 C106.22,263.14 106.58,261.17 107.00,258.77 C106.84,259.69 106.69,260.57 106.54,261.39 ZM 111.20 234.12 L 111.20 234.13 C111.16,234.40 111.11,234.68 111.06,234.96 C111.11,234.68 111.15,234.40 111.20,234.12 Z" fill="rgb(190,56,2)"/>
<path d="M 138.00 237.50 C138.00,226.99 137.78,219.93 137.40,217.23 C137.24,107.10 136.50,87.07 133.60,90.08 C132.87,90.83 128.74,111.35 127.97,118.00 C127.25,124.32 124.86,142.66 123.19,154.90 C125.00,141.29 125.93,130.95 125.48,128.89 C125.15,127.39 125.40,124.23 126.04,121.86 C126.68,119.49 127.62,113.49 128.14,108.53 C130.38,86.90 131.13,80.11 131.95,74.00 C132.43,70.43 133.39,62.44 134.08,56.25 C134.77,50.06 135.65,45.00 136.04,45.00 C137.46,45.00 138.06,61.45 138.06,100.50 C138.06,122.50 138.32,142.38 138.63,144.69 C139.11,148.18 139.75,149.13 142.50,150.44 C149.89,153.94 164.98,151.19 164.15,146.49 C163.43,142.43 164.15,112.28 165.11,106.05 C165.66,102.50 166.05,91.92 165.98,82.55 C165.84,63.16 166.92,44.52 168.11,45.71 C168.55,46.15 169.41,51.24 170.02,57.01 C170.62,62.78 171.55,70.20 172.07,73.50 C172.59,76.80 173.42,83.55 173.92,88.50 C175.34,102.61 176.96,115.71 177.46,117.17 C177.71,117.90 178.62,125.70 179.48,134.50 C180.12,141.11 180.62,145.95 181.18,150.62 C180.70,147.44 180.22,144.61 179.90,143.17 C179.00,139.13 178.54,136.00 175.94,115.77 C175.07,109.00 171.90,94.30 170.39,90.00 C169.93,88.69 169.75,88.70 168.98,90.08 C167.74,92.29 165.68,200.09 166.18,236.75 C166.40,253.39 166.26,267.00 165.86,267.00 C164.56,267.00 163.93,263.35 164.18,257.16 C164.31,253.82 164.21,250.93 163.96,250.75 C163.71,250.56 158.32,250.65 152.00,250.95 L 140.50 251.50 L 140.50 255.70 L 140.44 263.18 C140.30,265.63 140.20,271.40 140.16,278.22 L 140.00 278.25 L 140.00 286.98 L 140.00 287.01 L 140.00 287.02 L 140.00 294.00 L 140.11 294.00 C140.13,294.22 140.15,294.42 140.17,294.61 C140.18,297.05 140.20,299.42 140.23,301.61 C140.25,310.44 140.34,317.20 140.50,319.19 L 140.50 327.50 L 150.20 327.14 L 159.90 326.78 L 161.85 330.00 C163.51,332.72 163.89,332.93 164.29,331.36 C164.62,330.08 164.80,330.36 164.88,332.25 C164.95,333.76 165.45,335.00 166.00,335.00 C166.55,335.00 167.00,335.90 167.00,337.00 C167.00,338.10 166.55,339.00 166.00,339.00 C165.45,339.00 164.95,339.79 164.88,340.75 C164.78,342.34 164.72,342.33 164.30,340.67 C163.91,339.20 163.50,339.48 162.16,342.17 L 160.50 345.50 L 150.50 345.53 L 140.50 345.55 L 140.50 360.78 C140.50,369.15 140.16,376.00 139.75,376.00 C139.34,376.00 139.00,378.25 139.00,381.00 C139.00,383.75 138.66,386.00 138.25,386.00 C138.01,386.00 137.79,365.52 137.63,333.78 C137.86,303.49 137.96,272.33 137.87,249.68 C137.95,246.40 138.00,242.31 138.00,237.50 ZM 163.95 181.14 C163.88,175.17 163.78,170.15 163.67,166.83 C163.56,161.33 163.45,157.73 163.34,157.46 C162.60,155.51 142.79,155.33 141.22,157.25 C140.99,157.53 140.80,159.38 140.66,162.70 C140.66,162.72 140.65,162.73 140.65,162.75 C140.36,163.77 140.19,174.65 140.14,187.14 C140.00,188.38 140.00,190.00 140.00,192.11 C140.00,192.37 140.00,192.64 140.00,192.92 C140.00,193.19 140.00,193.45 140.00,193.69 C140.00,193.75 140.00,193.80 140.00,193.86 L 140.00 193.97 C140.00,194.30 140.00,194.62 140.00,194.91 C140.00,195.16 140.00,195.40 140.01,195.63 C139.99,197.52 140.02,199.33 140.13,200.86 C140.16,211.29 140.27,220.77 140.46,224.59 L 140.50 233.50 L 151.50 234.05 C157.55,234.36 162.84,234.69 163.25,234.80 C163.66,234.91 164.03,233.54 164.06,231.75 C164.18,225.16 164.15,210.50 164.03,195.93 L 164.03 195.60 C164.03,192.82 164.02,190.11 164.00,187.51 L 164.00 181.16 ZM 135.70 434.83 C135.73,434.81 135.76,434.78 135.78,434.76 C135.81,434.74 135.83,434.73 135.85,434.71 C136.04,434.56 136.20,434.24 136.33,433.66 C136.93,431.79 137.14,428.33 136.88,426.10 C136.96,423.15 137.00,419.31 137.00,414.38 C137.00,402.13 137.37,395.00 138.00,395.00 C138.55,395.00 139.00,395.67 139.00,396.50 C139.00,397.33 139.34,398.00 139.75,398.00 C140.11,398.00 140.30,403.36 140.23,410.48 C140.19,410.87 140.15,411.38 140.13,412.00 C140.11,412.81 140.12,413.53 140.18,414.16 C140.01,422.89 140.24,430.00 140.69,430.00 C141.15,430.00 142.08,429.10 142.77,428.00 C143.83,426.29 145.10,426.00 151.44,426.00 C159.97,426.00 162.00,427.24 162.00,432.47 C162.00,435.25 162.36,435.78 164.25,435.76 C164.97,435.75 171.79,435.87 181.73,436.05 C186.10,436.22 191.00,436.36 196.12,436.47 C184.56,436.49 170.45,436.50 153.27,436.50 C126.35,436.50 101.85,436.46 84.44,436.39 C88.93,436.35 93.67,436.28 98.38,436.19 C118.73,436.03 128.86,435.78 133.18,435.28 C133.53,435.25 133.85,435.20 134.13,435.16 C134.64,435.09 135.04,435.01 135.33,434.93 C135.54,434.90 135.66,434.86 135.70,434.83 ZM 142.93 244.42 C143.94,245.63 146.19,246.00 152.51,246.00 C160.17,246.00 160.81,245.84 161.34,243.80 C162.38,239.84 160.39,238.90 151.70,239.21 C145.55,239.43 143.47,239.88 142.66,241.17 C141.90,242.37 141.98,243.27 142.93,244.42 ZM 143.40 338.60 C143.85,339.78 145.66,340.02 152.23,339.79 L 160.50 339.50 L 160.82 336.21 L 161.13 332.92 L 152.33 333.21 C144.76,333.46 143.47,333.75 143.18,335.31 C142.99,336.30 143.09,337.78 143.40,338.60 ZM 93.85 327.65 C93.56,328.89 93.27,330.23 93.02,331.50 C92.07,336.32 88.87,349.75 86.36,359.74 C87.04,356.48 87.50,353.51 87.59,351.50 C88.01,342.39 89.21,336.00 90.50,336.00 C91.18,336.00 92.27,333.86 92.92,331.25 C93.19,330.14 93.52,328.88 93.85,327.65 ZM 220.44 369.05 L 220.44 369.05 C220.26,368.38 220.08,367.70 219.90,367.02 C224.48,384.18 228.52,397.27 232.47,407.44 C231.94,406.11 231.41,404.72 230.88,403.30 C230.66,402.68 230.43,402.05 230.20,401.42 C229.89,400.53 229.57,399.62 229.26,398.69 C228.72,397.05 228.22,395.53 227.75,394.15 C225.45,387.05 223.06,378.80 220.44,369.05 ZM 187.47 195.94 C187.31,194.69 187.15,193.38 186.98,192.00 C186.47,187.88 185.42,180.45 184.65,175.50 C184.25,172.90 183.73,169.37 183.24,165.85 C183.64,168.55 184.09,171.55 184.61,175.00 C185.49,180.77 186.59,188.65 187.05,192.50 C187.19,193.69 187.33,194.83 187.47,195.94 ZM 95.97 319.12 C95.87,320.37 95.56,321.90 95.19,322.96 C95.57,321.57 95.89,319.86 95.98,318.68 L 95.98 318.70 C95.98,318.83 95.97,318.97 95.97,319.12 ZM 99.03 300.65 C98.30,304.31 97.62,307.90 97.10,310.90 C97.00,311.43 96.91,311.95 96.83,312.45 C96.39,314.94 96.09,316.94 96.00,318.09 L 96.00 318.08 C96.00,316.83 97.36,308.99 99.03,300.65 ZM 246.88 434.21 C246.41,433.29 245.71,432.14 244.87,430.98 C244.83,430.92 244.79,430.87 244.75,430.81 C244.58,430.56 244.41,430.31 244.23,430.06 C244.31,430.17 244.40,430.28 244.48,430.39 C245.47,431.69 246.40,433.20 246.88,434.21 ZM 117.64 193.13 C117.60,193.39 117.57,193.65 117.53,193.90 C117.56,193.70 117.59,193.49 117.64,193.13 Z" fill="rgb(216,31,3)"/>
<path d="M 0.00 0.00 L 470.00 0.00 L 470.00 0.50 L 0.00 0.50 ZM 117.64 193.13 C117.60,193.39 117.57,193.65 117.53,193.90 C117.56,193.70 117.59,193.49 117.64,193.13 Z" fill="rgb(250,50,34)"/>
<path d="M 0.00 468.06 C0.00,468.64 88.83,469.00 235.00,469.00 L 0.00 469.00 L 0.00 1.75 C0.00,2.44 0.45,3.00 1.00,3.00 C2.39,3.00 2.39,465.64 1.00,466.50 C0.45,466.84 0.00,467.54 0.00,468.06 ZM 0.00 1.75 L 0.00 0.50 L 235.00 0.50 C47.71,0.50 0.02,0.75 0.00,1.75 Z" fill="rgb(252,96,66)"/>
<path d="M 0.00 468.06 C0.00,467.54 0.45,466.84 1.00,466.50 C2.39,465.64 2.39,3.00 1.00,3.00 C0.45,3.00 -0.00,2.44 -0.00,1.75 C-0.00,0.75 47.67,0.50 235.00,0.50 L 470.00 0.50 L 470.00 234.75 L 470.00 469.00 L 235.00 469.00 C88.83,469.00 0.00,468.64 0.00,468.06 ZM 247.17 435.00 C246.99,434.17 245.78,432.10 244.48,430.39 C235.79,418.97 228.63,400.24 219.10,364.00 C215.00,348.42 207.04,310.55 201.96,282.50 C199.56,269.22 196.98,256.09 196.53,254.86 C196.25,254.11 195.56,249.68 194.98,245.00 C194.40,240.32 193.53,234.25 193.05,231.50 C189.65,212.14 188.54,204.93 187.05,192.50 C186.59,188.65 185.49,180.77 184.61,175.00 C181.76,156.26 181.06,150.75 179.48,134.50 C178.62,125.70 177.71,117.90 177.46,117.17 C176.96,115.71 175.34,102.61 173.92,88.50 C173.42,83.55 172.59,76.80 172.07,73.50 C171.55,70.20 170.62,62.78 170.02,57.01 C169.41,51.24 168.55,46.15 168.11,45.71 C166.92,44.52 165.84,63.16 165.98,82.55 C166.05,91.92 165.66,102.50 165.11,106.05 C164.15,112.28 163.43,142.43 164.15,146.49 C164.98,151.19 149.89,153.94 142.50,150.44 C139.75,149.13 139.11,148.18 138.63,144.69 C138.32,142.38 138.06,122.50 138.06,100.50 C138.06,61.45 137.46,45.00 136.04,45.00 C135.65,45.00 134.77,50.06 134.08,56.25 C133.39,62.44 132.43,70.43 131.95,74.00 C131.13,80.11 130.38,86.90 128.14,108.53 C127.62,113.49 126.68,119.49 126.04,121.86 C125.40,124.23 125.15,127.39 125.48,128.89 C126.02,131.37 124.57,145.79 122.00,163.50 C117.25,196.16 115.34,208.69 111.87,230.00 C109.68,243.48 107.02,259.00 105.95,264.50 C104.89,270.00 103.57,276.98 103.03,280.00 C102.49,283.02 100.69,292.32 99.03,300.65 C97.36,308.99 96.00,316.83 96.00,318.08 C96.00,319.33 95.57,321.74 95.05,323.43 C94.53,325.12 93.57,328.64 92.92,331.25 C92.27,333.86 91.18,336.00 90.50,336.00 C89.21,336.00 88.01,342.39 87.59,351.50 C87.39,356.00 85.33,365.32 83.08,372.00 C82.61,373.38 81.67,376.52 80.99,379.00 C79.59,384.08 72.37,406.44 71.15,409.50 C68.71,415.60 65.13,422.21 61.31,427.68 C56.87,434.05 56.27,435.59 58.02,436.17 C58.58,436.35 101.44,436.50 153.27,436.50 C236.51,436.50 247.46,436.33 247.17,435.00 ZM 143.40 338.60 C143.09,337.78 142.99,336.30 143.18,335.31 C143.47,333.75 144.76,333.46 152.33,333.21 L 161.13 332.92 L 160.82 336.21 L 160.50 339.50 L 152.23 339.79 C145.66,340.02 143.85,339.78 143.40,338.60 ZM 142.93 244.42 C141.98,243.27 141.90,242.37 142.66,241.17 C143.47,239.88 145.55,239.43 151.70,239.21 C160.39,238.90 162.38,239.84 161.34,243.80 C160.81,245.84 160.17,246.00 152.51,246.00 C146.19,246.00 143.94,245.63 142.93,244.42 Z" fill="rgb(253,0,0)"/>
</g>
</svg>
