<?xml version="1.0" encoding="UTF-8"?>
<svg width="1024" height="1024" version="1.1" viewBox="0 0 1024 1024" xmlns="http://www.w3.org/2000/svg">
  <!-- Base -->
  <rect width="1024" height="1024" fill="#f00"/>

  <!-- Primary green pattern (aligned to known UV-friendly regions) -->
  <g fill="#0f0">
    <!-- Left main body: tapered spear -->
    <path d="M164.47 0H494.63V418L429 545L329.55 645L230.1 545L164.47 418Z"/>

    <!-- Left auxiliary bars used by stock skins -->
    <rect x="27.033" y="0" width="130.33" height="492.32"/>
    <rect x="501.74" y="0" width="130.33" height="492.31"/>

    <!-- Right-side UV islands -->
    <rect x="700.81" y="66.675" width="257.69" height="100.77"/>
    <rect x="739.53" y="209.39" width="201.96" height="78.52"/>
    <rect x="666.93" y="286.65" width="338.43" height="117.23"/>

    <!-- Lower rear accents -->
    <rect x="503.95" y="515.15" width="119.9" height="425.59"/>
    <rect x="34.796" y="634.61" width="121.37" height="292.45"/>
    <rect x="890.77" y="288.81" width="116.85" height="115.99"/>
  </g>

  <!-- Subtle depth accents -->
  <g fill="#141414" fill-opacity=".18">
    <polygon points="329.55,645 429,545 494.63,418 494.63,460 429,585 329.55,685 230.1,585 164.47,460 164.47,418 230.1,545"/>
    <rect x="503.95" y="515.15" width="119.9" height="60"/>
    <rect x="700.81" y="66.675" width="257.69" height="20"/>
  </g>
</svg>
